<svg xmlns="http://www.w3.org/2000/svg" width="34" height="34" viewBox="0 0 34 34"><g><g opacity="1"><path fill="#fff" d="M25.265 33.999h-.055c-.962-.515-1.664-1.387-2.411-2.132a520.39 520.39 0 0 0-6.96-6.778c-1.57 1.756-3.025 3.562-4.659 5.356-.243.268-1.168 1.682-1.918 1.476-.637-.174-.348-1.393-.274-2.186.25-2.655.487-5.271.768-7.707-2.486-.877-4.86-1.567-7.563-2.46-.685-.226-2.172-.51-2.193-1.203-.02-.689 1.247-1.117 1.809-1.421C11.826 11.526 21.58 6.374 31.458.929c.343-.19 1.738-1.17 2.302-.875.51.268.065 1.598-.055 2.077-2.546 10.165-5.004 19.945-7.508 30.009-.175.701-.346 1.857-.932 1.859zM2.357 18.2c1.965.65 3.95 1.26 5.974 1.914.533.171 1.526.707 1.973.655.253-.028.74-.587 1.096-.874 4.941-3.981 9.456-7.647 14.358-11.534.575-.455 1.684-1.732 2.357-1.64 1.064.147.278 1.293-.055 1.75-3.822 5.255-7.704 10.518-11.344 15.578a579.765 579.765 0 0 1 7.617 7.489c.121.12.296.355.494.328 2.502-9.912 5.115-20.006 7.453-29.9C22.346 7.42 12.296 12.754 2.357 18.201zm10.303 2.406c-.516.408-1.45 1.021-1.59 1.42-.166.478-.115 1.25-.164 1.804-.167 1.903-.334 3.521-.548 5.357 5.33-5.251 9.543-11.909 13.92-17.928-3.757 3.012-7.755 6.284-11.618 9.347z"/></g></g></svg>