<svg xmlns="http://www.w3.org/2000/svg" width="46" height="44" viewBox="0 0 46 44"><g><g opacity="1"><path fill="#534acb" d="M22.012-.001h1.976c8.83 1.252 13.948 6.274 15.453 14.965.718.579 1.502 1.09 1.887 2.008 2.945.871 4.112 3.549 4.671 6.843v2.008c-.574 3.22-1.74 5.837-4.582 6.753-.545.723-1.05 1.488-1.886 1.916-.566 4.48-2.93 7.246-7.367 7.574-1.025.076-2.48-.365-3.594 0-.847.277-1.372 2.13-2.605 1.916h-4.942c-2.877-.192-3.668-4.665-.629-5.566 1.009-.299 5.325-.214 6.2.091 1.02.356 1.345 1.14 1.886 1.643 3.735.29 6.802-.232 8.176-2.282.41-.61 1.264-2.282.988-3.285-.157-.57-1.31-1.027-1.617-1.825-.624-1.618-.18-5.326-.18-8.03v-4.106c0-2.691-.086-4.751 1.797-5.475-.532-4.174-2.302-7.278-4.941-9.582-2.593-2.263-6.1-3.945-10.781-3.65-7.68.485-12.35 5.939-13.566 13.14 2.461 1.09 1.797 5.367 1.797 9.764 0 4.286.982 10.232-3.145 9.764-1.21-.136-1.748-1.056-2.336-2.007C1.735 31.726.584 29.062 0 25.823v-2.008c.582-3.302 1.718-6.042 4.762-6.843.243-1.03 1.14-1.397 1.797-2.008C8.053 6.262 13.186 1.254 22.012 0zM6.649 17.063c-.326 3.539-.18 8.064-.18 11.863 0 1.295-.26 2.76.36 3.74.508.05.569.05 1.077 0 .616-.964.36-2.344.36-3.65 0-3.967.145-8.426-.18-11.953-.28-.26-1.157-.26-1.437 0zm31.265 0c-.326 3.539-.18 8.064-.18 11.863 0 1.295-.26 2.76.36 3.74.508.05.569.05 1.077 0 .616-.964.36-2.344.36-3.65 0-3.967.145-8.426-.18-11.953-.28-.26-1.157-.26-1.437 0zM4.582 30.66c-.06-3.894.12-8.03-.09-11.772C1.003 20.41.93 29.26 4.582 30.66zm36.925 0c3.508-1.523 3.539-10.361-.09-11.772.06 3.894-.12 8.03.09 11.772zM20.394 41.792c1.47.44 4.642.453 6.11 0 .233-.334.233-1.035 0-1.369-1.481.055-7.479-1.276-6.11 1.37z"/></g></g></svg>