<svg xmlns="http://www.w3.org/2000/svg" width="21" height="18" viewBox="0 0 21 18"><g><g opacity=".5"><path d="M21.143 2.258c-.357.195-1.427.585-2.424.68.64-.341 1.587-1.46 1.82-2.35-.615.392-2.028.958-2.725.958v.002C17.018.724 15.898.074 14.656.074c-2.414 0-4.178 2.073-4.178 4.462 0 .332.039.655.11.966C7.312 5.417 3.54 3.63 1.383.85.06 3.12 1.206 5.81 2.71 6.73c-.514.04-1.463-.058-1.908-.49-.03 1.508.701 3.505 3.371 4.229-.514.274-1.424.195-1.82.137.139 1.273 1.939 2.936 3.907 2.936-.702.803-3.34 2.26-6.302 1.796a13.228 13.228 0 0 0 6.836 1.914c7.052 0 12.831-5.657 12.536-12.636l-.001-.024.001-.055-.002-.063c.642-.434 1.2-1.203 1.815-2.215z"/></g></g></svg>