<svg xmlns="http://www.w3.org/2000/svg" width="22" height="21" viewBox="0 0 22 21"><g><g opacity=".5"><path d="M21.629 10.512c0 5.791-4.743 10.486-10.593 10.486S.443 16.303.443 10.512C.443 4.722 5.185.026 11.036.026c5.85 0 10.593 4.695 10.593 10.486zm-8.641-1.878c.236.48.467.976.692 1.485 1.772-.278 3.821-.264 6.198.147a8.665 8.665 0 0 0-1.891-5.165c-1.397 1.632-3.1 2.76-5 3.533zm-1.952-6.881c-.719 0-1.416.087-2.085.248a44.837 44.837 0 0 1 3.232 5.079c1.772-.702 3.338-1.733 4.585-3.232a8.857 8.857 0 0 0-5.732-2.095zm-8.61 6.749c2.814-.008 5.594-.19 8.079-.867a42.873 42.873 0 0 0-3.273-5.03c-2.388 1.13-4.186 3.291-4.806 5.897zm1.95 7.77c1.578-2.29 3.88-4.695 7.573-5.766a38.113 38.113 0 0 0-.616-1.3c-2.807.819-5.938 1.024-9.09 1.024h-.048c-.003.094-.007.187-.007.282 0 2.203.828 4.218 2.189 5.76zm6.66 3a8.85 8.85 0 0 0 3.37-.663c-.342-2.3-.986-4.49-1.778-6.498-3.387.926-5.468 3.128-6.962 5.356a8.855 8.855 0 0 0 5.37 1.805zm8.718-7.274c-2.062-.374-3.842-.422-5.39-.227.714 1.858 1.308 3.862 1.67 5.965a8.771 8.771 0 0 0 3.72-5.738z"/></g></g></svg>