<svg xmlns="http://www.w3.org/2000/svg" width="22" height="19" viewBox="0 0 22 19"><g><g opacity=".5"><path d="M13.04 14.428c0 2.144-1.96 3.814-5.757 3.814-3.331 0-6.61-1.205-6.61-3.35 0-2.178 3.032-3.947 6.362-3.947.363 0 .697-.004 1.04-.004-.454-.441-.816-.967-.816-1.63 0-.393.126-.751.305-1.087-.182.014-.367.062-.556.062-2.737 0-4.57-1.839-4.57-4.228 0-2.336 2.531-4.177 5.22-4.177h6l-1.343.874h-1.902c1.261 0 1.823 1.805 1.823 3.3 0 1.253-.591 2.2-1.583 2.966C9.685 7.77 9.5 8.084 9.5 8.72c0 .543 1.037 1.467 1.578 1.846 1.586 1.111 1.96 2.14 1.96 3.862zM10.19 4.036C9.922 2.03 8.453.416 6.909.371 5.364.325 4.328 1.863 4.596 3.872c.265 2.009 1.733 3.675 3.28 3.72 1.545.045 2.58-1.546 2.314-3.556zm1.225 10.63c0-.206-.027-.411-.074-.608-.252-.983-.928-1.469-2.178-2.33a5.103 5.103 0 0 0-1.493-.236c-2.303-.025-4.364 1.39-4.364 3.087 0 1.734 1.663 2.712 3.965 2.712 3.237 0 4.144-.89 4.144-2.624zM19.244.715v2.664h2.642v1.76h-2.642v2.623h-1.766V5.138h-2.644v-1.76h2.643V.714z"/></g></g></svg>