<svg xmlns="http://www.w3.org/2000/svg" width="22" height="21" viewBox="0 0 22 21"><g><g opacity=".5"><path d="M6.504 17.912c0 1.676-1.381 3.032-3.087 3.032-1.705 0-3.088-1.356-3.088-3.032 0-1.675 1.383-3.034 3.088-3.034 1.706 0 3.087 1.359 3.087 3.034zm7.923 2.82c0 .082-.012.161-.014.244h-3.94c.001-.083.012-.162.012-.244 0-5.338-4.559-9.843-9.993-9.843-.054 0-.109.007-.163.008V7.025c.054 0 .11-.009.163-.009 7.607 0 13.935 6.243 13.935 13.716zm7.06 0c0 .081-.005.161-.006.244h-3.887c.002-.083.007-.162.007-.244C17.6 11.524 9.866 3.925.492 3.925c-.054 0-.109.004-.163.004v-3.9L.492.027c11.547 0 20.995 9.365 20.995 20.706z"/></g></g></svg>