<svg width="12" height="13" viewBox="0 0 12 13" fill="none" xmlns="http://www.w3.org/2000/svg">
<path d="M4.06002 5.14503L6.00002 7.08503L7.94002 5.14503C7.98631 5.09874 8.04126 5.06202 8.10175 5.03697C8.16223 5.01192 8.22705 4.99902 8.29252 4.99902C8.35798 4.99902 8.42281 5.01192 8.48329 5.03697C8.54377 5.06202 8.59873 5.09874 8.64502 5.14503C8.69131 5.19132 8.72803 5.24628 8.75308 5.30676C8.77813 5.36724 8.79103 5.43207 8.79103 5.49753C8.79103 5.563 8.77813 5.62782 8.75308 5.68831C8.72803 5.74879 8.69131 5.80374 8.64502 5.85003L6.35002 8.14503C6.30376 8.19139 6.24882 8.22816 6.18833 8.25325C6.12784 8.27834 6.063 8.29126 5.99752 8.29126C5.93203 8.29126 5.86719 8.27834 5.80671 8.25325C5.74622 8.22816 5.69128 8.19139 5.64502 8.14503L3.35002 5.85003C3.30367 5.80378 3.26689 5.74883 3.2418 5.68835C3.21671 5.62786 3.2038 5.56302 3.2038 5.49753C3.2038 5.43205 3.21671 5.36721 3.2418 5.30672C3.26689 5.24624 3.30367 5.19129 3.35002 5.14503C3.54502 4.95503 3.86502 4.95003 4.06002 5.14503Z" fill="#A5A9C0"/>
</svg>
