<svg xmlns="http://www.w3.org/2000/svg" xmlns:xlink="http://www.w3.org/1999/xlink" preserveAspectRatio="xMidYMid" width="18" height="15" viewBox="0 0 18 15">
  <defs>
    <style>
      .cls-1 {
        fill: #38424c;
        fill-rule: evenodd;
      }
    </style>
  </defs>
  <path d="M16.500,11.000 C15.671,11.000 15.000,10.328 15.000,9.500 C15.000,8.671 15.671,7.999 16.500,7.999 C17.328,7.999 18.000,8.671 18.000,9.500 C18.000,10.328 17.328,11.000 16.500,11.000 ZM16.500,7.000 C15.671,7.000 15.000,6.328 15.000,5.500 C15.000,4.671 15.671,3.999 16.500,3.999 C17.328,3.999 18.000,4.671 18.000,5.500 C18.000,6.328 17.328,7.000 16.500,7.000 ZM16.500,3.000 C15.671,3.000 15.000,2.328 15.000,1.500 C15.000,0.671 15.671,-0.001 16.500,-0.001 C17.328,-0.001 18.000,0.671 18.000,1.500 C18.000,2.328 17.328,3.000 16.500,3.000 ZM11.500,15.000 C10.671,15.000 10.000,14.328 10.000,13.499 C10.000,12.671 10.671,12.000 11.500,12.000 C12.328,12.000 13.000,12.671 13.000,13.499 C13.000,14.328 12.328,15.000 11.500,15.000 ZM11.500,11.000 C10.671,11.000 10.000,10.328 10.000,9.500 C10.000,8.671 10.671,7.999 11.500,7.999 C12.328,7.999 13.000,8.671 13.000,9.500 C13.000,10.328 12.328,11.000 11.500,11.000 ZM11.500,7.000 C10.671,7.000 10.000,6.328 10.000,5.500 C10.000,4.671 10.671,3.999 11.500,3.999 C12.328,3.999 13.000,4.671 13.000,5.500 C13.000,6.328 12.328,7.000 11.500,7.000 ZM11.500,3.000 C10.671,3.000 10.000,2.328 10.000,1.500 C10.000,0.671 10.671,-0.001 11.500,-0.001 C12.328,-0.001 13.000,0.671 13.000,1.500 C13.000,2.328 12.328,3.000 11.500,3.000 ZM6.500,15.000 C5.671,15.000 5.000,14.328 5.000,13.499 C5.000,12.671 5.671,12.000 6.500,12.000 C7.328,12.000 8.000,12.671 8.000,13.499 C8.000,14.328 7.328,15.000 6.500,15.000 ZM6.500,11.000 C5.671,11.000 5.000,10.328 5.000,9.500 C5.000,8.671 5.671,7.999 6.500,7.999 C7.328,7.999 8.000,8.671 8.000,9.500 C8.000,10.328 7.328,11.000 6.500,11.000 ZM6.500,7.000 C5.671,7.000 5.000,6.328 5.000,5.500 C5.000,4.671 5.671,3.999 6.500,3.999 C7.328,3.999 8.000,4.671 8.000,5.500 C8.000,6.328 7.328,7.000 6.500,7.000 ZM6.500,3.000 C5.671,3.000 5.000,2.328 5.000,1.500 C5.000,0.671 5.671,-0.001 6.500,-0.001 C7.328,-0.001 8.000,0.671 8.000,1.500 C8.000,2.328 7.328,3.000 6.500,3.000 ZM1.500,15.000 C0.671,15.000 -0.000,14.328 -0.000,13.499 C-0.000,12.671 0.671,12.000 1.500,12.000 C2.328,12.000 3.000,12.671 3.000,13.499 C3.000,14.328 2.328,15.000 1.500,15.000 ZM1.500,11.000 C0.671,11.000 -0.000,10.328 -0.000,9.500 C-0.000,8.671 0.671,7.999 1.500,7.999 C2.328,7.999 3.000,8.671 3.000,9.500 C3.000,10.328 2.328,11.000 1.500,11.000 ZM1.500,7.000 C0.671,7.000 -0.000,6.328 -0.000,5.500 C-0.000,4.671 0.671,3.999 1.500,3.999 C2.328,3.999 3.000,4.671 3.000,5.500 C3.000,6.328 2.328,7.000 1.500,7.000 ZM1.500,3.000 C0.671,3.000 -0.000,2.328 -0.000,1.500 C-0.000,0.671 0.671,-0.001 1.500,-0.001 C2.328,-0.001 3.000,0.671 3.000,1.500 C3.000,2.328 2.328,3.000 1.500,3.000 ZM16.500,12.000 C17.328,12.000 18.000,12.671 18.000,13.499 C18.000,14.328 17.328,15.000 16.500,15.000 C15.671,15.000 15.000,14.328 15.000,13.499 C15.000,12.671 15.671,12.000 16.500,12.000 Z" class="cls-1"/>
</svg>
