<svg xmlns="http://www.w3.org/2000/svg" xmlns:xlink="http://www.w3.org/1999/xlink" preserveAspectRatio="xMidYMid" width="18" height="15" viewBox="0 0 18 15">
  <defs>
    <style>
      .cls-1 {
        fill: #b0b0b0;
        fill-rule: evenodd;
      }
    </style>
  </defs>
  <path d="M5.000,14.000 L5.000,13.000 L18.000,13.000 L18.000,14.000 L5.000,14.000 ZM5.000,7.000 L18.000,7.000 L18.000,7.999 L5.000,7.999 L5.000,7.000 ZM5.000,0.999 L18.000,0.999 L18.000,2.000 L5.000,2.000 L5.000,0.999 ZM1.500,15.000 C0.671,15.000 -0.000,14.328 -0.000,13.499 C-0.000,12.671 0.671,12.000 1.500,12.000 C2.328,12.000 3.000,12.671 3.000,13.499 C3.000,14.328 2.328,15.000 1.500,15.000 ZM1.500,9.000 C0.671,9.000 -0.000,8.328 -0.000,7.500 C-0.000,6.671 0.671,6.000 1.500,6.000 C2.328,6.000 3.000,6.671 3.000,7.500 C3.000,8.328 2.328,9.000 1.500,9.000 ZM1.500,3.000 C0.671,3.000 -0.000,2.328 -0.000,1.500 C-0.000,0.671 0.671,-0.001 1.500,-0.001 C2.328,-0.001 3.000,0.671 3.000,1.500 C3.000,2.328 2.328,3.000 1.500,3.000 Z" class="cls-1"/>
</svg>
