<svg width="50" height="50" viewBox="0 0 50 50" fill="none" xmlns="http://www.w3.org/2000/svg">
<g clip-path="url(#clip0)">
<path d="M18.3335 32.1826L20.8732 17.8969H24.8414L22.3811 32.1826H18.3335Z" fill="#3C58BF"/>
<path d="M18.3335 32.1826L21.5875 17.8969H24.8414L22.3811 32.1826H18.3335Z" fill="#293688"/>
<path d="M36.7459 18.0555C35.9522 17.738 34.6824 17.4205 33.0951 17.4205C29.1268 17.4205 26.2697 19.4047 26.2697 22.2618C26.2697 24.4047 28.2538 25.5158 29.8411 26.2301C31.4284 26.9443 31.9046 27.4205 31.9046 28.0555C31.9046 29.0078 30.6348 29.484 29.5237 29.484C27.9364 29.484 27.0633 29.2459 25.7141 28.6904L25.1586 28.4523L24.603 31.7062C25.5554 32.1031 27.3014 32.4999 29.1268 32.4999C33.3332 32.4999 36.111 30.5158 36.111 27.4999C36.111 25.8332 35.0792 24.5634 32.6983 23.5316C31.2697 22.8174 30.3967 22.4205 30.3967 21.7062C30.3967 21.0713 31.111 20.4364 32.6983 20.4364C34.0475 20.4364 34.9999 20.6745 35.7141 20.992L36.111 21.1507L36.7459 18.0555Z" fill="#3C58BF"/>
<path d="M36.7459 18.0555C35.9522 17.738 34.6824 17.4205 33.0951 17.4205C29.1268 17.4205 26.984 19.4047 26.984 22.2618C26.984 24.4047 28.2538 25.5158 29.8411 26.2301C31.4284 26.9443 31.9046 27.4205 31.9046 28.0555C31.9046 29.0078 30.6348 29.484 29.5237 29.484C27.9364 29.484 27.0633 29.2459 25.7141 28.6904L25.1586 28.4523L24.603 31.7062C25.5554 32.1031 27.3014 32.4999 29.1268 32.4999C33.3332 32.4999 36.111 30.5158 36.111 27.4999C36.111 25.8332 35.0792 24.5634 32.6983 23.5316C31.2697 22.8174 30.3967 22.4205 30.3967 21.7062C30.3967 21.0713 31.111 20.4364 32.6983 20.4364C34.0475 20.4364 34.9999 20.6745 35.7141 20.992L36.111 21.1507L36.7459 18.0555Z" fill="#293688"/>
<path d="M43.5715 17.8969C42.6192 17.8969 41.9049 17.9762 41.508 18.9286L35.5557 32.1826H39.8414L40.635 29.8016H45.7144L46.1906 32.1826H50.0001L46.6668 17.8969H43.5715ZM41.7461 27.4207C41.9842 26.7064 43.3334 23.2143 43.3334 23.2143C43.3334 23.2143 43.6509 22.3413 43.889 21.7857L44.1271 23.1349C44.1271 23.1349 44.9207 26.7064 45.0795 27.5H41.7461V27.4207Z" fill="#3C58BF"/>
<path d="M44.5239 17.8969C43.5715 17.8969 42.8573 17.9762 42.4604 18.9286L35.5557 32.1826H39.8414L40.635 29.8016H45.7144L46.1906 32.1826H50.0001L46.6668 17.8969H44.5239ZM41.7461 27.4207C42.0636 26.627 43.3334 23.2143 43.3334 23.2143C43.3334 23.2143 43.6509 22.3413 43.889 21.7857L44.1271 23.1349C44.1271 23.1349 44.9207 26.7064 45.0795 27.5H41.7461V27.4207Z" fill="#293688"/>
<path d="M11.032 27.8968L10.6351 25.8333C9.92086 23.4524 7.61927 20.8333 5.07959 19.5635L8.65102 32.2619H12.9367L19.3653 17.9762H15.0796L11.032 27.8968Z" fill="#3C58BF"/>
<path d="M11.032 27.8968L10.6351 25.8333C9.92086 23.4524 7.61927 20.8333 5.07959 19.5635L8.65102 32.2619H12.9367L19.3653 17.9762H15.8732L11.032 27.8968Z" fill="#293688"/>
<path d="M0 17.8969L0.714286 18.0556C5.79365 19.2461 9.28571 22.2619 10.6349 25.8334L9.20635 19.0873C8.96825 18.1349 8.25397 17.8969 7.38095 17.8969H0Z" fill="#FFBC00"/>
<path d="M0 17.8969C5.07937 19.0873 9.28571 22.1826 10.6349 25.754L9.28571 20.1191C9.04762 19.1667 8.25397 18.6111 7.38095 18.6111L0 17.8969Z" fill="#F7981D"/>
<path d="M0 17.8969C5.07937 19.0873 9.28571 22.1826 10.6349 25.754L9.68254 22.6588C9.44444 21.7064 9.12698 20.754 8.01587 20.3572L0 17.8969Z" fill="#ED7C00"/>
<path d="M15 27.4208L12.3015 24.7223L11.0317 27.7382L10.7142 25.7541C9.99996 23.3731 7.69837 20.7541 5.15869 19.4843L8.73012 32.1827H13.0158L15 27.4208Z" fill="#051244"/>
<path d="M22.3811 32.1826L18.9684 28.6906L18.3335 32.1826H22.3811Z" fill="#051244"/>
<path d="M31.5078 27.2621C31.8253 27.5795 31.984 27.8176 31.9046 28.1351C31.9046 29.0875 30.6348 29.5637 29.5237 29.5637C27.9364 29.5637 27.0633 29.3256 25.7141 28.77L25.1586 28.5319L24.603 31.7859C25.5554 32.1827 27.3014 32.5795 29.1268 32.5795C31.6665 32.5795 33.73 31.8653 34.9205 30.5954L31.5078 27.2621Z" fill="#051244"/>
<path d="M36.1108 32.1827H39.841L40.6347 29.8018H45.714L46.1902 32.1827H49.9997L48.6505 26.3891L43.8886 21.7859L44.1267 23.0557C44.1267 23.0557 44.9204 26.6272 45.0791 27.4208H41.7458C42.0632 26.6272 43.3331 23.2145 43.3331 23.2145C43.3331 23.2145 43.6505 22.3414 43.8886 21.7859" fill="#051244"/>
</g>
<defs>
<clipPath id="clip0">
<rect width="50" height="50" fill="white"/>
</clipPath>
</defs>
</svg>
